# 3ds Max Wavefront OBJ Exporter v0.97b - (c)2007 guruware
# File Created: 18.04.2019 08:45:55

mtllib isatv.mtl

#
# object Plane001
#

v  48.6870 93.2273 47.9031
v  57.1442 93.2273 47.9031
v  57.1442 93.2273 -57.0442
v  48.6870 93.2273 -57.0442
v  57.1442 92.0462 47.9031
v  48.6870 92.0462 47.9031
v  48.6870 92.0462 -57.0442
v  57.1442 92.0462 -57.0442
v  48.6870 79.3773 -31.9886
v  57.1442 79.3773 -31.9886
v  57.1442 79.3773 -57.0442
v  48.6870 79.3773 -57.0442
v  48.6870 78.1962 -31.9886
v  48.6870 78.1962 -57.0442
v  57.1442 78.1962 -57.0442
v  57.1442 78.1962 -31.9886
v  48.6870 65.5312 -31.9886
v  57.1442 65.5312 -31.9886
v  57.1442 65.5312 -57.0442
v  48.6870 65.5312 -57.0442
v  48.6870 64.3501 -31.9886
v  48.6870 64.3501 -57.0442
v  57.1442 64.3501 -57.0442
v  57.1442 64.3501 -31.9886
v  48.6870 51.6112 -31.9886
v  57.1442 51.6112 -31.9886
v  57.1442 51.6112 -57.0442
v  48.6870 51.6112 -57.0442
v  48.6870 50.4301 -31.9886
v  48.6870 50.4301 -57.0442
v  57.1442 50.4301 -57.0442
v  57.1442 50.4301 -31.9886
v  48.6870 38.3685 -31.9886
v  57.1442 38.3685 -31.9886
v  57.1442 38.3685 -57.0442
v  48.6870 38.3685 -57.0442
v  48.6870 37.1873 -31.9886
v  48.6870 37.1873 -57.0442
v  57.1442 37.1873 -57.0442
v  57.1442 37.1873 -31.9886
v  39.1919 23.7562 15.8836
v  39.1919 23.7562 47.9252
v  40.4001 23.7562 47.9252
v  40.4001 23.7562 15.8836
v  40.9273 23.7562 47.9252
v  40.9273 23.7562 15.8836
v  55.4625 23.7562 15.8836
v  55.4625 23.7562 47.9252
v  57.1442 23.7562 47.9252
v  57.1442 23.7562 15.8836
v  39.1919 23.7562 -54.7140
v  39.1919 23.7562 -26.0969
v  40.4001 23.7562 -26.0969
v  40.4001 23.7562 -54.7140
v  40.9273 23.7562 -26.0969
v  40.9273 23.7562 -54.7140
v  55.4625 23.7562 -54.7140
v  55.4625 23.7562 -26.0969
v  57.1442 23.7562 -26.0969
v  57.1442 23.7562 -54.7140
v  40.4001 23.7562 -57.0442
v  39.1919 23.7562 -57.0442
v  40.9273 23.7562 -57.0442
v  57.1442 23.7562 -57.0442
v  55.4625 23.7562 -57.0442
v  40.4001 22.5751 15.8836
v  40.4001 22.5751 47.9252
v  39.1919 22.5751 47.9252
v  39.1919 22.5751 15.8836
v  55.4625 2.2677 15.8836
v  55.4625 2.2677 47.9252
v  40.9273 2.2677 47.9252
v  40.9273 2.2677 15.8836
v  57.1442 2.2677 15.8836
v  57.1442 2.2677 47.9252
v  40.4001 22.5751 -54.7140
v  40.4001 22.5751 -26.0969
v  39.1919 22.5751 -26.0969
v  39.1919 22.5751 -54.7140
v  55.4625 2.2677 -54.7140
v  55.4625 2.2677 -26.0969
v  40.9273 2.2677 -26.0969
v  40.9273 2.2677 -54.7140
v  57.1442 2.2677 -54.7140
v  57.1442 2.2677 -26.0969
v  39.1919 22.5751 -57.0442
v  40.4001 22.5751 -57.0442
v  40.4001 2.2677 -54.7140
v  40.4001 2.2677 -57.0442
v  40.9273 2.2677 -57.0442
v  55.4625 2.2677 -57.0442
v  57.1442 2.2677 -57.0442
v  40.4001 23.7562 49.8937
v  39.1919 23.7562 49.8937
v  39.1919 22.5751 49.8937
v  40.4001 22.5751 49.8937
v  40.9273 22.5751 49.8937
v  40.9273 23.7562 49.8937
v  57.1442 22.5751 47.9252
v  57.1442 22.5751 15.8836
v  57.1442 23.7562 49.8937
v  55.4625 23.7562 49.8937
v  55.4625 22.5751 49.8937
v  57.1442 22.5751 49.8937
v  57.1442 22.5751 -26.0969
v  57.1442 22.5751 -54.7140
v  57.1442 22.5751 -57.0442
v  40.9273 22.5751 -57.0442
v  55.4625 22.5751 -57.0442
v  40.4001 2.2677 47.9252
v  40.4001 2.2677 15.8836
v  40.4001 2.2677 -26.0969
v  40.4001 21.5841 15.8836
v  40.4001 3.2587 15.8836
v  40.4001 3.2587 47.9252
v  40.4001 21.5841 47.9252
v  40.4001 21.5841 -57.0442
v  40.4001 3.2587 -57.0442
v  40.4001 3.2587 -54.7140
v  40.4001 21.5841 -54.7140
v  40.9273 21.5841 -57.0442
v  40.9273 3.2587 -57.0442
v  55.4625 21.5841 -57.0442
v  55.4625 3.2587 -57.0442
v  57.1442 21.5841 -57.0442
v  57.1442 3.2587 -57.0442
v  57.1442 21.5841 -54.7140
v  57.1442 3.2587 -54.7140
v  57.1442 21.5841 -26.0969
v  57.1442 3.2587 -26.0969
v  57.1442 21.5841 47.9252
v  57.1442 3.2587 47.9252
v  57.1442 3.2587 15.8836
v  57.1442 21.5841 15.8836
v  55.4625 21.5841 47.9252
v  55.4625 3.2587 47.9252
v  40.9273 21.5841 47.9252
v  40.9273 3.2587 47.9252
v  40.9273 22.5751 47.9252
v  55.4625 22.5751 47.9252
v  40.4001 3.2587 -26.0969
v  40.4001 21.5841 -26.0969
v  50.2033 21.5841 -26.0969
v  50.2033 3.2587 -26.0969
v  50.2033 3.2587 15.8836
v  50.2033 21.5841 15.8836
v  48.6870 92.6301 -32.1971
v  57.1442 92.6301 -32.1971
v  57.1442 23.6868 -32.1971
v  48.6870 23.6868 -32.1971
v  48.6870 92.6301 -31.0160
v  48.6870 23.6868 -31.0160
v  57.1442 23.6868 -31.0160
v  57.1442 92.6301 -31.0160
v  42.2561 12.1043 16.5511
v  50.7133 12.1043 16.5511
v  50.7133 12.1043 -26.5372
v  42.2561 12.1043 -26.5372
v  42.2561 10.9232 16.5511
v  42.2561 10.9232 -26.5372
v  50.7133 10.9232 -26.5372
v  50.7133 10.9232 16.5511
# 162 vertices

vn -0.5774 0.5774 0.5774
vn 0.5774 0.5774 0.5774
vn 0.5774 0.5774 -0.5774
vn -0.5774 0.5774 -0.5774
vn 0.5774 -0.5774 0.5774
vn -0.5774 -0.5774 0.5774
vn -0.5774 -0.5774 -0.5774
vn 0.5774 -0.5774 -0.5774
vn -0.7071 0.7071 -0.0000
vn 0.0000 1.0000 -0.0000
vn 0.7071 0.7071 -0.0000
vn 0.0000 0.7071 -0.7071
vn -0.7071 -0.7071 -0.0000
vn -0.3015 -0.9045 0.3015
vn 0.0000 -1.0000 -0.0000
vn 0.0000 -0.7071 0.7071
vn 0.7071 -0.7071 -0.0000
vn -0.3015 -0.3015 -0.9045
vn 0.0000 -0.7071 -0.7071
vn 0.0000 0.7071 0.7071
vn 0.9045 -0.3015 0.3015
vn 1.0000 0.0000 -0.0000
vn 0.7071 0.0000 -0.7071
vn 0.0000 0.0000 -1.0000
vn -0.9045 -0.3015 -0.3015
vn -0.9045 0.3015 -0.3015
vn -0.7071 0.0000 0.7071
vn -0.7071 0.0000 -0.7071
vn -1.0000 0.0000 -0.0000
vn 0.7071 0.0000 0.7071
vn 0.0000 0.0000 1.0000
vn -0.9045 0.3015 0.3015
vn -0.9045 -0.3015 0.3015
# 33 vertex normals

vt 0.0000 0.0000 0.0000
vt 1.0000 0.0000 0.0000
vt 1.0000 1.0000 0.0000
vt 0.0000 1.0000 0.0000
vt 0.0000 0.2500 0.0000
vt 0.2500 0.0000 0.0000
vt 0.2500 0.2500 0.0000
vt 0.2675 0.0000 0.0000
vt 0.2675 0.2500 0.0000
vt 0.7500 0.2500 0.0000
vt 0.7500 0.0000 0.0000
vt 1.0000 0.2500 0.0000
vt 0.0000 0.5000 0.0000
vt 0.0000 0.3750 0.0000
vt 0.2500 0.3750 0.0000
vt 0.2500 0.5000 0.0000
vt 0.2675 0.3750 0.0000
vt 0.2675 0.5000 0.0000
vt 0.7500 0.5000 0.0000
vt 0.7500 0.3750 0.0000
vt 1.0000 0.3750 0.0000
vt 1.0000 0.5000 0.0000
vt 0.2500 1.0000 0.0000
vt 0.2675 1.0000 0.0000
vt 0.7500 1.0000 0.0000
# 25 texture coords

o Plane001
g Plane001
usemtl wire_028089177
s 1
f 1/1/1 2/2/2 3/3/3 4/4/4 
f 5/2/5 6/1/6 7/4/7 8/3/8 
s 2
f 1/1/1 4/4/4 7/4/7 6/1/6 
s 4
f 1/1/1 6/1/6 5/2/5 2/2/2 
s 2
f 2/2/2 5/2/5 8/3/8 3/3/3 
s 4
f 4/4/4 3/3/3 8/3/8 7/4/7 
s 1
f 9/1/1 10/2/2 11/3/3 12/4/4 
f 13/1/6 14/4/7 15/3/8 16/2/5 
s 2
f 9/1/1 12/4/4 14/4/7 13/1/6 
s 4
f 9/1/1 13/1/6 16/2/5 10/2/2 
s 2
f 10/2/2 16/2/5 15/3/8 11/3/3 
s 4
f 12/4/4 11/3/3 15/3/8 14/4/7 
s 1
f 17/1/1 18/2/2 19/3/3 20/4/4 
f 21/1/6 22/4/7 23/3/8 24/2/5 
s 2
f 17/1/1 20/4/4 22/4/7 21/1/6 
s 4
f 17/1/1 21/1/6 24/2/5 18/2/2 
s 2
f 18/2/2 24/2/5 23/3/8 19/3/3 
s 4
f 20/4/4 19/3/3 23/3/8 22/4/7 
s 1
f 25/1/1 26/2/2 27/3/3 28/4/4 
f 29/1/6 30/4/7 31/3/8 32/2/5 
s 2
f 25/1/1 28/4/4 30/4/7 29/1/6 
s 4
f 25/1/1 29/1/6 32/2/5 26/2/2 
s 2
f 26/2/2 32/2/5 31/3/8 27/3/3 
s 4
f 28/4/4 27/3/3 31/3/8 30/4/7 
s 1
f 33/1/1 34/2/2 35/3/3 36/4/4 
f 37/1/6 38/4/7 39/3/8 40/2/5 
s 2
f 33/1/1 36/4/4 38/4/7 37/1/6 
s 4
f 33/1/1 37/1/6 40/2/5 34/2/2 
s 2
f 34/2/2 40/2/5 39/3/8 35/3/3 
s 4
f 36/4/4 35/3/3 39/3/8 38/4/7 
s 1
f 41/5/9 42/1/9 43/6/10 44/7/10 
f 44/7/10 43/6/10 45/8/10 46/9/10 
f 47/10/10 48/11/10 49/2/11 50/12/11 
f 51/13/9 52/14/9 53/15/10 54/16/10 
f 54/16/10 53/15/10 55/17/10 56/18/10 
f 57/19/10 58/20/10 59/21/11 60/22/11 
f 51/13/9 54/16/10 61/23/12 62/4/4 
f 54/16/10 56/18/10 63/24/12 61/23/12 
f 57/19/10 60/22/11 64/3/3 65/25/12 
f 66/7/13 67/6/14 68/1/13 69/5/13 
f 70/10/15 71/11/16 72/8/16 73/9/15 
f 74/12/17 75/2/5 71/11/16 70/10/15 
f 76/16/13 77/15/13 78/14/13 79/13/13 
f 80/19/15 81/20/15 82/17/15 83/18/15 
f 84/22/17 85/21/17 81/20/15 80/19/15 
f 76/16/13 79/13/13 86/4/7 87/23/18 
f 88/16/13 89/23/7 90/24/19 83/18/15 
f 84/22/17 80/19/15 91/25/19 92/3/8 
s 2
f 42/1/9 41/5/9 69/5/13 68/1/13 
s 4
f 93/6/20 94/1/1 95/1/6 96/6/16 
f 93/6/20 96/6/16 97/8/16 98/8/20 
s 2
f 50/12/11 49/2/11 99/2/21 100/12/22 
s 4
f 101/2/2 102/11/20 103/11/16 104/2/5 
s 2
f 41/5/9 52/14/9 78/14/13 69/5/13 
f 60/22/11 59/21/11 105/21/22 106/22/22 
f 51/13/9 62/4/4 86/4/7 79/13/13 
f 60/22/11 106/22/22 107/3/23 64/3/3 
s 4
f 62/4/4 61/23/12 87/23/18 86/4/7 
f 61/23/12 63/24/12 108/24/24 87/23/18 
f 65/25/12 64/3/3 107/3/23 109/25/24 
s 1
f 45/8/10 48/11/10 47/10/10 46/9/10 
f 46/9/10 47/10/10 58/20/10 55/17/10 
f 56/18/10 57/19/10 65/25/12 63/24/12 
f 72/8/16 110/6/6 111/7/13 73/9/15 
f 73/9/15 111/7/13 112/15/13 82/17/15 
f 90/24/19 91/25/19 80/19/15 83/18/15 
s 4
f 97/8/16 103/11/16 102/11/20 98/8/20 
f 63/24/12 65/25/12 109/25/24 108/24/24 
s off
f 113/7/25 114/7/26 115/6/27 116/6/27 
f 117/23/28 118/23/28 119/16/29 120/16/29 
f 121/24/24 122/24/24 118/23/28 117/23/28 
f 123/25/24 124/25/24 122/24/24 121/24/24 
f 125/3/23 126/3/23 124/25/24 123/25/24 
f 127/22/22 128/22/22 126/3/23 125/3/23 
f 129/21/22 130/21/22 128/22/22 127/22/22 
f 131/2/30 132/2/30 133/12/22 134/12/22 
f 135/11/31 136/11/31 132/2/30 131/2/30 
f 137/8/31 138/8/31 136/11/31 135/11/31 
f 116/6/27 115/6/27 138/8/31 137/8/31 
f 43/6/10 42/1/9 94/1/1 93/6/20 
f 42/1/9 68/1/13 95/1/6 94/1/1 
f 68/1/13 67/6/14 96/6/16 95/1/6 
f 67/6/14 139/8/16 97/8/16 96/6/16 
f 139/8/16 140/11/16 103/11/16 97/8/16 
f 140/11/16 99/2/21 104/2/5 103/11/16 
f 99/2/21 49/2/11 101/2/2 104/2/5 
f 49/2/11 48/11/10 102/11/20 101/2/2 
f 48/11/10 45/8/10 98/8/20 102/11/20 
f 45/8/10 43/6/10 93/6/20 98/8/20 
s 1
f 52/14/9 41/5/9 44/7/10 53/15/10 
f 53/15/10 44/7/10 46/9/10 55/17/10 
f 58/20/10 47/10/10 50/12/11 59/21/11 
f 77/15/13 66/7/13 69/5/13 78/14/13 
f 81/20/15 70/10/15 73/9/15 82/17/15 
f 85/21/17 74/12/17 70/10/15 81/20/15 
s 2
f 52/14/9 51/13/9 79/13/13 78/14/13 
f 59/21/11 50/12/11 100/12/22 105/21/22 
s 1
f 58/20/10 57/19/10 56/18/10 55/17/10 
f 112/15/13 88/16/13 83/18/15 82/17/15 
s off
f 120/16/29 119/16/29 141/15/32 142/15/33 
f 134/12/22 133/12/22 130/21/22 129/21/22 
f 114/7/26 111/7/13 110/6/6 115/6/27 
f 116/6/27 67/6/14 66/7/13 113/7/25 
f 141/15/32 112/15/13 111/7/13 114/7/26 
f 113/7/25 66/7/13 77/15/13 142/15/33 
f 118/23/28 89/23/7 88/16/13 119/16/29 
f 120/16/29 76/16/13 87/23/18 117/23/28 
f 122/24/24 90/24/19 89/23/7 118/23/28 
f 117/23/28 87/23/18 108/24/24 121/24/24 
f 124/25/24 91/25/19 90/24/19 122/24/24 
f 121/24/24 108/24/24 109/25/24 123/25/24 
f 126/3/23 92/3/8 91/25/19 124/25/24 
f 123/25/24 109/25/24 107/3/23 125/3/23 
f 128/22/22 84/22/17 92/3/8 126/3/23 
f 125/3/23 107/3/23 106/22/22 127/22/22 
f 130/21/22 85/21/17 84/22/17 128/22/22 
f 127/22/22 106/22/22 105/21/22 129/21/22 
f 132/2/30 75/2/5 74/12/17 133/12/22 
f 134/12/22 100/12/22 99/2/21 131/2/30 
f 136/11/31 71/11/16 75/2/5 132/2/30 
f 131/2/30 99/2/21 140/11/16 135/11/31 
f 138/8/31 72/8/16 71/11/16 136/11/31 
f 135/11/31 140/11/16 139/8/16 137/8/31 
f 115/6/27 110/6/6 72/8/16 138/8/31 
f 137/8/31 139/8/16 67/6/14 116/6/27 
f 119/16/29 88/16/13 112/15/13 141/15/32 
f 142/15/33 77/15/13 76/16/13 120/16/29 
f 133/12/22 74/12/17 85/21/17 130/21/22 
f 129/21/22 105/21/22 100/12/22 134/12/22 
s 1
f 143/15/6 144/15/1 145/8/4 146/8/7 
s off
f 114/8/26 113/8/25 146/8/7 145/8/4 
f 113/8/25 142/15/33 143/15/6 146/8/7 
f 142/15/33 141/15/32 144/15/1 143/15/6 
f 141/15/32 114/8/26 145/8/4 144/15/1 
s 1
f 147/1/4 148/2/3 149/3/8 150/4/7 
f 151/1/1 152/4/6 153/3/5 154/2/2 
s 2
f 147/1/4 150/4/7 152/4/6 151/1/1 
s 4
f 147/1/4 151/1/1 154/2/2 148/2/3 
s 2
f 148/2/3 154/2/2 153/3/5 149/3/8 
s 4
f 150/4/7 149/3/8 153/3/5 152/4/6 
s 1
f 155/1/1 156/2/2 157/3/3 158/4/4 
f 159/1/6 160/4/7 161/3/8 162/2/5 
s 2
f 155/1/1 158/4/4 160/4/7 159/1/6 
s 4
f 155/1/1 159/1/6 162/2/5 156/2/2 
s 2
f 156/2/2 162/2/5 161/3/8 157/3/3 
s 4
f 158/4/4 157/3/3 161/3/8 160/4/7 
# 146 polygons

#
# object Plane003
#

v  55.3899 34.9342 -27.3856
v  55.3899 34.9342 -26.1829
v  55.3899 36.0520 -26.1829
v  55.3899 36.0520 -27.3856
v  55.3899 34.9342 43.2775
v  55.3899 36.0520 43.2775
v  55.3899 34.9342 44.3878
v  55.3899 36.0520 44.3878
v  55.3899 69.8137 -26.1829
v  55.3899 69.8137 -27.3856
v  55.7970 36.0520 -26.1829
v  55.7970 36.0520 43.2775
v  55.7970 69.8137 43.2775
v  55.7970 69.8137 -26.1829
v  55.3899 69.8137 44.3878
v  55.3899 69.8137 43.2775
v  55.3899 71.0657 -26.1829
v  55.3899 71.0657 -27.3856
v  55.3899 71.0657 43.2775
v  55.3899 71.0657 44.3878
v  56.3870 36.0520 -26.1829
v  56.3870 34.9342 -26.1829
v  56.3870 34.9342 -27.3856
v  56.3870 36.0520 -27.3856
v  56.3870 36.0520 43.2775
v  56.3870 34.9342 43.2775
v  56.3870 36.0520 44.3878
v  56.3870 34.9342 44.3878
v  56.3870 69.8137 -26.1829
v  56.3870 69.8137 -27.3856
v  56.8825 69.8137 43.2775
v  56.8825 36.0520 43.2775
v  56.8825 36.0520 -26.1829
v  56.8825 69.8137 -26.1829
v  56.3870 69.8137 44.3878
v  56.3870 69.8137 43.2775
v  56.3870 71.0657 -26.1829
v  56.3870 71.0657 -27.3856
v  56.3870 71.0657 43.2775
v  56.3870 71.0657 44.3878
v  55.7970 34.9342 -26.1829
v  55.7970 34.9342 -27.3856
v  55.7970 36.0520 -27.3856
v  55.7970 34.9342 43.2775
v  55.7970 34.9342 44.3878
v  55.7970 36.0520 44.3878
v  55.7970 69.8137 -27.3856
v  55.7970 69.8137 44.3878
v  55.7970 71.0657 -27.3856
v  55.7970 71.0657 -26.1829
v  55.7970 71.0657 43.2775
v  55.7970 71.0657 44.3878
# 52 vertices

vn -0.5773 -0.5774 -0.5774
vn -0.7071 -0.7071 -0.0000
vn -0.9045 0.3015 0.3015
vn -0.7071 -0.0000 -0.7071
vn -0.9045 0.3015 -0.3015
vn -0.5774 -0.5774 0.5773
vn -0.7071 -0.0000 0.7071
vn -0.9045 -0.3015 0.3015
vn -0.5774 0.5774 0.5774
vn -0.5774 0.5774 -0.5774
vn -0.5774 -0.5774 -0.5774
vn -0.5774 -0.5774 0.5774
vn -0.9045 -0.3015 -0.3015
vn -0.7071 0.7071 -0.0000
vn -0.5773 0.5773 -0.5774
vn -0.5774 0.5774 0.5773
vn 0.9045 -0.3015 -0.3015
vn 0.7071 -0.7071 0.0000
vn 0.5774 -0.5773 -0.5773
vn 0.7071 0.0000 -0.7071
vn 0.9045 -0.3015 0.3015
vn 0.7071 0.0000 0.7071
vn 0.5773 -0.5773 0.5774
vn 0.9045 0.3015 -0.3015
vn 0.5774 0.5774 0.5774
vn 0.5774 -0.5774 0.5774
vn 0.5774 -0.5774 -0.5774
vn 0.5774 0.5774 -0.5774
vn 0.9045 0.3015 0.3015
vn 0.7071 0.7071 0.0000
vn 0.5774 0.5773 -0.5773
vn 0.5773 0.5773 0.5774
vn 0.0000 -1.0000 0.0000
vn 0.0000 -0.7071 -0.7071
vn 0.0000 -0.0000 -1.0000
vn -0.0000 -0.7071 0.7071
vn -0.0000 0.0000 1.0000
vn 0.0000 0.7071 -0.7071
vn -0.0000 1.0000 -0.0000
vn -0.0000 0.7071 0.7071
# 40 vertex normals

vt 0.0000 0.0000 0.0000
vt 0.2500 0.0000 0.0000
vt 0.2500 0.2500 0.0000
vt 0.0000 0.2500 0.0000
vt 0.7500 0.0000 0.0000
vt 0.7500 0.2500 0.0000
vt 1.0000 0.0000 0.0000
vt 1.0000 0.2500 0.0000
vt 0.2500 0.7500 0.0000
vt 0.0000 0.7500 0.0000
vt 0.7500 0.7500 0.0000
vt 1.0000 0.7500 0.0000
vt 0.2500 1.0000 0.0000
vt 0.0000 1.0000 0.0000
vt 0.7500 1.0000 0.0000
vt 1.0000 1.0000 0.0000
# 16 texture coords

o Plane003
g Plane003
usemtl wire_214229166
s 1
f 163/26/34 164/27/35 165/28/36 166/29/37 
f 164/27/35 167/30/35 168/31/38 165/28/36 
f 167/30/35 169/32/39 170/33/40 168/31/38 
f 166/29/37 165/28/36 171/34/41 172/35/37 
f 173/28/42 174/31/43 175/36/44 176/34/45 
f 168/31/38 170/33/40 177/37/40 178/36/46 
f 172/35/37 171/34/41 179/38/47 180/39/48 
f 179/38/47 171/34/41 178/36/46 181/40/47 
f 178/36/46 177/37/40 182/41/49 181/40/47 
f 183/28/50 184/27/51 185/26/52 186/29/53 
f 187/31/54 188/30/51 184/27/51 183/28/50 
f 189/33/55 190/32/56 188/30/51 187/31/54 
f 191/34/57 183/28/50 186/29/53 192/35/53 
f 193/36/58 194/31/59 195/28/60 196/34/61 
f 197/37/55 189/33/55 187/31/54 198/36/62 
f 199/38/63 191/34/57 192/35/53 200/39/64 
f 198/36/62 191/34/57 199/38/63 201/40/63 
f 202/41/65 197/37/55 198/36/62 201/40/63 
s 2
f 203/27/66 204/26/67 185/26/52 184/27/51 
s 4
f 204/26/67 205/29/68 186/29/53 185/26/52 
s 2
f 206/30/66 203/27/66 184/27/51 188/30/51 
f 207/32/69 206/30/66 188/30/51 190/32/56 
s 4
f 208/33/70 207/32/69 190/32/56 189/33/55 
f 205/29/68 209/35/68 192/35/53 186/29/53 
f 210/37/70 208/33/70 189/33/55 197/37/55 
s 2
f 211/39/71 212/38/72 199/38/63 200/39/64 
s 4
f 209/35/68 211/39/71 200/39/64 192/35/53 
s 2
f 212/38/72 213/40/72 201/40/63 199/38/63 
s 4
f 214/41/73 210/37/70 197/37/55 202/41/65 
s 2
f 213/40/72 214/41/73 202/41/65 201/40/63 
s off
f 204/26/67 203/27/66 164/27/35 163/26/34 
f 203/27/66 206/30/66 167/30/35 164/27/35 
f 206/30/66 207/32/69 169/32/39 167/30/35 
f 207/32/69 208/33/70 170/33/40 169/32/39 
f 208/33/70 210/37/70 177/37/40 170/33/40 
f 210/37/70 214/41/73 182/41/49 177/37/40 
f 214/41/73 213/40/72 181/40/47 182/41/49 
f 213/40/72 212/38/72 179/38/47 181/40/47 
f 212/38/72 211/39/71 180/39/48 179/38/47 
f 211/39/71 209/35/68 172/35/37 180/39/48 
f 209/35/68 205/29/68 166/29/37 172/35/37 
f 205/29/68 204/26/67 163/26/34 166/29/37 
f 174/31/43 173/28/42 165/28/36 168/31/38 
f 173/28/42 176/34/45 171/34/41 165/28/36 
f 176/34/45 175/36/44 178/36/46 171/34/41 
f 175/36/44 174/31/43 168/31/38 178/36/46 
f 187/31/54 183/28/50 195/28/60 194/31/59 
f 183/28/50 191/34/57 196/34/61 195/28/60 
f 191/34/57 198/36/62 193/36/58 196/34/61 
f 198/36/62 187/31/54 194/31/59 193/36/58 
# 50 polygons

